<?xml version="1.0" encoding="utf-8"?>
<!-- Generator: Adobe Illustrator 22.1.0, SVG Export Plug-In . SVG Version: 6.00 Build 0)  -->
<svg version="1.1" id="signalcompose" xmlns="http://www.w3.org/2000/svg" xmlns:xlink="http://www.w3.org/1999/xlink" x="0px"
	 y="0px" viewBox="0 0 679.4 88.6" style="enable-background:new 0 0 679.4 88.6;" xml:space="preserve">
<style type="text/css">
	.st0{fill:#FFFFFF;}
	.st1{fill:#E73F4B;}
</style>
<title>logo</title>
<g id="Logo">
	<path class="st0" d="M3.2,71l0.1-12.9h13.1c5.1,0.1,9.4-4,9.5-9.1c0-0.1,0-0.2,0-0.4c0.1-5-2-9.9-5.7-13.3
		c-3.8-3.5-7.4-6.9-11-10.3c-4-5.1-5.9-12-5.9-20.8h13.1c0,8,1.9,14.5,5.8,19.2l10.7,10.1c4,4,6.1,9.5,5.9,15.1
		c0.1,12.3-9.8,22.3-22.1,22.4c-0.1,0-0.2,0-0.3,0L3.2,71z"/>
	<polygon class="st1" points="46.6,4.2 59.6,4.2 59.4,16.9 46.5,16.9 	"/>
	<polygon class="st0" points="46.6,22.1 59.6,22.1 59.6,71 46.5,71 	"/>
	<path class="st0" d="M119.5,70.8c0.1,7.3-5.7,13.4-13,13.5c-0.1,0-0.3,0-0.4,0H79.6V71.4h26.9V30.5h-16c-3-0.1-5.9,1.2-8,3.4
		c-2.1,2.2-3.3,5.1-3.2,8.1c-0.1,3.1,1.1,6,3.2,8.2c2.1,2.2,5,3.4,8,3.3h11.1v13.1H90.4c-6.5,0.1-12.7-2.5-17.2-7.1
		c-4.6-4.6-7.2-10.9-7-17.4c-0.2-6.5,2.3-12.9,6.9-17.5c4.4-4.7,10.6-7.2,17-7.1h29.4V70.8z"/>
	<path class="st0" d="M126.8,17.5h22.4c7.1-0.2,14,2.6,19,7.7c5.1,4.9,7.9,11.6,7.8,18.6V71h-13.1V43.8c0.1-3.6-1.4-7.1-4.1-9.5
		c-2.6-2.5-6.2-3.9-9.9-3.8H140V71h-13.2V17.5z"/>
	<path class="st0" d="M220.5,30.5h-14c-3.6-0.1-7,1.3-9.5,4c-5.1,5.5-5.1,14.1,0,19.6c2.4,2.6,5.8,4.1,9.4,4h9.1V71h-9
		c-7,0.1-13.8-2.6-18.6-7.7c-5-5-7.7-11.9-7.5-19c-0.1-7.2,2.6-14.1,7.6-19.1c4.8-5.1,11.5-8,18.5-7.9h26.8V71h-12.8V30.5z"/>
	<path class="st0" d="M243.6,4.2h13.1V71h-13.2L243.6,4.2z"/>
	<path class="st0" d="M309.3,71c-7.1,0.2-13.9-2.6-18.8-7.7c-5-5-7.8-11.9-7.6-19c-0.1-7.2,2.6-14.1,7.7-19.1
		c4.8-5.2,11.6-8.1,18.7-7.9h13.4l0.1,13.2h-13.5c-3.6-0.1-7,1.4-9.5,4c-2.6,2.6-3.9,6.2-3.8,9.9c-0.2,7.3,5.7,13.4,13,13.6
		c0.2,0,0.3,0,0.5,0h13.2v13.1L309.3,71z"/>
	<path class="st0" d="M371.8,63.3c-10.4,10.5-27.4,10.5-37.9,0.1c-5.1-5.1-7.9-11.9-7.9-19.1c-0.3-14.8,11.4-27,26.2-27.3
		c14.8-0.3,27,11.4,27.3,26.2c0,0.4,0,0.8,0,1.1C379.7,51.5,376.9,58.4,371.8,63.3z M362.4,34.3c-2.5-2.6-6-3.9-9.6-3.8
		c-7.7,0.1-13.8,6.3-13.7,14c0,3.6,1.5,7.1,4,9.6c5.3,5.4,14,5.5,19.4,0.2c2.7-2.6,4.2-6.2,4.1-10l-0.3-0.5
		C366.3,40.2,364.9,36.8,362.4,34.3L362.4,34.3z"/>
	<path class="st0" d="M386.6,17.5h21.9c12.1-0.1,22,9.6,22.1,21.6c0,0.1,0,0.3,0,0.4V71h-12.9V39.4c0.1-2.4-0.9-4.7-2.7-6.4
		c-1.8-1.7-4.1-2.6-6.6-2.6h-8.9V71h-13.1L386.6,17.5z"/>
	<path class="st1" d="M439.8,17.5c5.9-0.1,11.6,2.2,15.8,6.4c4.2,4.1,6.6,9.8,6.5,15.6V71h-13.4V39.4c0-2.4-0.9-4.7-2.6-6.3
		c-1.7-1.7-4.1-2.7-6.5-2.6l-8.6-0.2V17.5H439.8z"/>
	<path class="st0" d="M468.7,17.3h26.6c14.8-0.3,26.9,11.5,27.2,26.3c0,0.3,0,0.5,0,0.8c0.2,7.1-2.7,14-7.8,19
		c-5.1,5.1-12,7.9-19.2,7.7h-8.6v-13h8.6c3.7,0.1,7.3-1.3,10-4c2.6-2.6,4.1-6.1,4-9.7c0.1-3.6-1.4-7.1-4-9.6
		c-2.7-2.7-6.3-4.2-10.1-4.5H482v54.2l-13.2-0.1V17.3z"/>
	<path class="st0" d="M572.1,63.3c-10.4,10.5-27.4,10.5-37.9,0.1c-5.1-5.1-7.9-11.9-7.9-19.1c0-14.8,12-26.8,26.8-26.8
		c14.8,0,26.8,12,26.8,26.8C580,51.5,577.2,58.4,572.1,63.3z M562.7,34.3c-2.5-2.5-6-3.9-9.6-3.8c-7.7,0.1-13.8,6.3-13.7,14
		c0,3.6,1.5,7.1,4,9.6c5.3,5.4,14,5.5,19.4,0.2c2.7-2.6,4.2-6.2,4.1-10l-0.3-0.5C566.6,40.3,565.2,36.8,562.7,34.3L562.7,34.3z"/>
	<path class="st0" d="M584,84.3V71.4H597c5.1,0.1,9.4-4,9.4-9.2c0-0.1,0-0.2,0-0.3c0-3-1.9-6.3-5.8-10c-5.5-5.2-9.1-9.1-10.8-11.9
		c-4-6.2-5.9-13.7-5.9-22.6H597c-0.2,6.9,1.8,13.6,5.8,19.2l10.7,11.5c3.9,4.3,5.9,8.9,5.9,13.7c0.1,6-2.2,11.8-6.5,15.9
		c-4.1,4.3-9.9,6.6-15.8,6.5L584,84.3z"/>
	<path class="st0" d="M649.3,71c-7.1,0.2-13.9-2.6-18.8-7.7c-5-5-7.8-11.9-7.6-19c-0.1-7.1,2.6-14,7.7-19c4.9-5.1,11.7-7.9,18.8-7.8
		l26.8-0.2v13.1l-13.3,22.5h-13.1l13.2-22.4l-13.6-0.1c-3.6-0.1-7,1.3-9.5,3.9c-5.1,5.5-5.1,14,0,19.5c2.5,2.6,5.9,4,9.5,4h27
		L676.1,71L649.3,71z"/>
</g>
</svg>
