<svg id="signalcompose" xmlns="http://www.w3.org/2000/svg" viewBox="0 0 679.39 179.92"><defs><style>.cls-1{fill:#fff;}.cls-2{fill:#2b2323;}.cls-3{fill:#ff0a00;}</style></defs><title>logo</title><rect id="margin" class="cls-1" width="679.39" height="179.92"/><g id="Logo"><path class="cls-2" d="M56.23,112.46l.09-10.88h11a7.85,7.85,0,0,0,8-8A14.72,14.72,0,0,0,70.51,82.4Q65.77,78,61.27,73.73q-5-6.45-5-17.5h11q0,10.17,4.86,16.18l9,8.49a17.4,17.4,0,0,1,5,12.73,18.71,18.71,0,0,1-18.83,18.83Z"/><polygon class="cls-3" points="92.76 56.23 103.72 56.23 103.55 66.92 92.67 66.92 92.76 56.23"/><polygon class="cls-2" points="92.76 71.26 103.72 71.26 103.72 112.46 92.67 112.46 92.76 71.26"/><path class="cls-2" d="M154.23,112.3a11.17,11.17,0,0,1-11.32,11.39H120.63V112.81h22.63V78.33H129.74A9,9,0,0,0,123,81.16,9.44,9.44,0,0,0,120.28,88,9.61,9.61,0,0,0,123,94.91a9,9,0,0,0,6.77,2.78h9.37v11h-9.46a19.5,19.5,0,0,1-14.46-6A20.17,20.17,0,0,1,109.31,88a20.4,20.4,0,0,1,5.84-14.77,19.2,19.2,0,0,1,14.32-6h24.76Z"/><path class="cls-2" d="M160.36,67.37h18.83a21.86,21.86,0,0,1,16,6.48,21.28,21.28,0,0,1,6.54,15.71v22.9h-11V89.53a10.56,10.56,0,0,0-3.42-8,11.63,11.63,0,0,0-8.3-3.24H171.5v34.13H160.36Z"/><path class="cls-2" d="M239.27,78.33h-11.8a10.63,10.63,0,0,0-8,3.33,12.19,12.19,0,0,0,0,16.55,10.58,10.58,0,0,0,7.92,3.37h7.65v10.88h-7.58A21.24,21.24,0,0,1,211.75,106a22,22,0,0,1-6.34-16,22.26,22.26,0,0,1,6.44-16.12,20.94,20.94,0,0,1,15.62-6.65h22.59v45.27H239.27Z"/><path class="cls-2" d="M258.73,56.23h11v56.23H258.64Z"/><path class="cls-2" d="M314.07,112.46A21.41,21.41,0,0,1,298.2,106a21.93,21.93,0,0,1-6.41-16,22.24,22.24,0,0,1,6.46-16.12A21.11,21.11,0,0,1,314,67.19H325.3l.09,11.14H314a10.7,10.7,0,0,0-8,3.33,11.44,11.44,0,0,0-3.22,8.3,11.21,11.21,0,0,0,11.4,11.45H325.3v11Z"/><path class="cls-2" d="M366.73,106a22.55,22.55,0,0,1-38.55-16,22.55,22.55,0,1,1,45.09,0A21.63,21.63,0,0,1,366.73,106Zm-7.92-24.42a10.94,10.94,0,0,0-8.09-3.24,11.68,11.68,0,0,0-8.22,19.88A11.55,11.55,0,0,0,362.31,90l-.27-.45A10.83,10.83,0,0,0,358.81,81.57Z"/><path class="cls-2" d="M379.22,67.37H397.7a18.44,18.44,0,0,1,18.65,18.55v26.54H405.48V85.88a7.17,7.17,0,0,0-2.25-5.37,7.68,7.68,0,0,0-5.53-2.18h-7.52v34.13h-11Z"/><path class="cls-3" d="M424,67.37a18.2,18.2,0,0,1,13.3,5.37,17.78,17.78,0,0,1,5.44,13.18v26.54H431.47V85.88a7.26,7.26,0,0,0-2.21-5.33,7.42,7.42,0,0,0-5.48-2.22l-7.25-.18V67.37Z"/><path class="cls-2" d="M448.4,67.19h22.37A22.52,22.52,0,0,1,493.67,90a21.62,21.62,0,0,1-6.59,16,22.08,22.08,0,0,1-16.14,6.51h-7.25V101.58h7.25a11.37,11.37,0,0,0,8.4-3.37A11.25,11.25,0,0,0,482.7,90a10.91,10.91,0,0,0-3.4-8.12,13.41,13.41,0,0,0-8.53-3.77H459.54v45.62l-11.14-.09Z"/><path class="cls-2" d="M535.45,106A22.55,22.55,0,0,1,496.9,90,22.55,22.55,0,1,1,542,90,21.63,21.63,0,0,1,535.45,106Zm-7.92-24.42a11,11,0,0,0-8.09-3.24,11.68,11.68,0,0,0-8.22,19.88A11.54,11.54,0,0,0,531,90l-.26-.45A10.83,10.83,0,0,0,527.53,81.57Z"/><path class="cls-2" d="M545.48,123.69V112.81h11a7.84,7.84,0,0,0,7.95-8q0-3.81-4.86-8.42-6.9-6.56-9.1-10-5-7.78-5-19h11a26.86,26.86,0,0,0,4.86,16.18l9,9.72q4.95,5.49,4.95,11.5a18.26,18.26,0,0,1-5.47,13.43,18.07,18.07,0,0,1-13.31,5.49Z"/><path class="cls-2" d="M600.52,112.46A21.41,21.41,0,0,1,584.65,106a21.93,21.93,0,0,1-6.41-16,22,22,0,0,1,6.46-16,21.34,21.34,0,0,1,15.82-6.55l22.55-.18V78.33L611.84,97.25l-11,0,11.08-18.84-11.45-.06a10.79,10.79,0,0,0-8,3.3,12,12,0,0,0,0,16.43,10.71,10.71,0,0,0,8,3.35h22.72l-.09,11Z"/></g></svg>